<?xml version="1.0" encoding="utf-8"?>
<!-- Generator: Adobe Illustrator 22.1.0, SVG Export Plug-In . SVG Version: 6.00 Build 0)  -->
<svg version="1.1" id="Layer_1" xmlns="http://www.w3.org/2000/svg" xmlns:xlink="http://www.w3.org/1999/xlink" x="0px" y="0px"
	 viewBox="0 0 512 512" style="enable-background:new 0 0 512 512;" xml:space="preserve">
<style type="text/css">
	.st0{fill:#FFFFFF;}
</style>
<g id="Layer_3">
	<path class="st0" d="M255.8,258.6c24.2,0,44.4-19.6,45.1-43.8l0,0v-77.1l0,0c0-24.8-20.3-45.1-45.1-45.1s-45.1,20.3-45.1,45.1l0,0
		v77.1l0,0C211.4,239,231,258.6,255.8,258.6z M399.6,58c-28.1,0-47,19.6-70.6,30.7c-2,0.7-3.3,1.3-5.2,2.6v123.5l0,0
		c-0.7,36.6-30.7,66.7-67.3,66.7c-37.2,0-68-30.1-68-68c0,0,0,0,0-0.7l0,0V91.3c-2-0.7-3.3-1.3-5.2-2.6C159.8,77,140.2,58,112.1,58
		c-47.7,0-81.7,48.4-65.3,93.4c7.2,19.6,21.6,30.7,37.9,41.2c20.3,13.1,38.6,28.8,53.6,47.7c22.2,27.4,37.2,60.8,44.4,96.1
		c3.3,16.3,5.2,38.6,6.5,53.6c3.3,35.3,27.4,64,66.7,64s63.4-28.8,66.7-64c1.3-15,3.3-37.2,7.2-53.6c7.2-34.6,22.2-68,44.4-96.1
		c15-19,33.3-34.6,53.6-47.7c17-10.5,31.4-21.6,37.9-41.2C481.3,106.4,446.6,58,399.6,58z"/>
</g>
</svg>
